<?xml version="1.0" encoding="UTF-8"?>
<svg width="120px" height="36px" viewBox="0 0 120 36" version="1.1" xmlns="http://www.w3.org/2000/svg" xmlns:xlink="http://www.w3.org/1999/xlink">
    <title>On White</title>
    <g id="Page-1" stroke="none" stroke-width="1" fill="none" fill-rule="evenodd">
        <g id="On-White">
            <rect id="Rectangle" stroke="#000000" stroke-width="0.5" fill="#FFFFFF" x="0.25" y="0.25" width="119.5" height="35.5"></rect>
            <polygon id="|" fill="#000000" fill-rule="nonzero" points="35.7539062 28.1640625 35.7539062 7.9375 35.1210938 7.9375 35.1210938 28.1640625"></polygon>
            <path d="M12.4931641,23.1367188 C13.4091797,23.1367188 14.1394857,22.8564453 14.684082,22.2958984 C15.2286784,21.7353516 15.5009766,20.9833984 15.5009766,20.0400391 L15.5009766,20.0400391 L15.5009766,13.046875 L14.6533203,13.046875 L14.6533203,20.0878906 C14.6442057,20.8079427 14.4402669,21.3776042 14.0415039,21.796875 C13.6427409,22.2161458 13.1266276,22.4257812 12.4931641,22.4257812 C11.805013,22.4257812 11.2718099,22.2446289 10.8935547,21.8823242 C10.5152995,21.5200195 10.3261719,20.9788411 10.3261719,20.2587891 L10.3261719,20.2587891 L9.48535156,20.2587891 C9.48535156,21.1656901 9.74511719,21.8720703 10.2646484,22.3779297 C10.7841797,22.8837891 11.5270182,23.1367188 12.4931641,23.1367188 Z M19.5027344,23 L19.5027344,18.9462891 L22.0320312,18.9462891 C23.1257812,18.9462891 23.9609049,18.6922201 24.5374023,18.184082 C25.1138997,17.675944 25.4021484,16.9547526 25.4021484,16.0205078 C25.4021484,15.0953776 25.1025065,14.3684896 24.5032227,13.8398438 C23.9039388,13.3111979 23.0870443,13.046875 22.0525391,13.046875 L22.0525391,13.046875 L18.6619141,13.046875 L18.6619141,23 L19.5027344,23 Z M22.0525391,18.2353516 L19.5027344,18.2353516 L19.5027344,13.7646484 L22.1072266,13.7646484 C22.8910807,13.773763 23.4960612,13.9822591 23.922168,14.3901367 C24.3482747,14.7980143 24.5613281,15.3460286 24.5613281,16.0341797 C24.5613281,16.726888 24.3471354,17.2669271 23.91875,17.6542969 C23.4903646,18.0416667 22.8682943,18.2353516 22.0525391,18.2353516 L22.0525391,18.2353516 Z" id="JP" fill="#000000" fill-rule="nonzero"></path>
            <path d="M46.3984375,23 L46.3984375,18.015625 L46.3203125,13.0078125 L50.5390625,23 L51.28125,23 L55.515625,12.96875 L55.4375,18.046875 L55.4375,23 L56.3984375,23 L56.3984375,11.625 L55.1171875,11.625 L50.90625,21.6640625 L46.7109375,11.625 L45.4375,11.625 L45.4375,23 L46.3984375,23 Z M62.9875,23.15625 C63.55,23.15625 64.0773437,23.0364583 64.5695312,22.796875 C65.0617187,22.5572917 65.45625,22.2252604 65.753125,21.8007812 C66.05,21.3763021 66.2114583,20.90625 66.2375,20.390625 L66.2375,20.390625 L65.3390625,20.390625 C65.3026042,20.9739583 65.0643229,21.4492188 64.6242187,21.8164062 C64.1841146,22.1835938 63.6385417,22.3671875 62.9875,22.3671875 C62.1385417,22.3671875 61.4809896,22.0651042 61.0148437,21.4609375 C60.5486979,20.8567708 60.315625,20.015625 60.315625,18.9375 L60.315625,18.9375 L60.315625,18.6640625 C60.315625,17.5651042 60.5486979,16.7109375 61.0148437,16.1015625 C61.4809896,15.4921875 62.1359375,15.1875 62.9796875,15.1875 C63.6411458,15.1875 64.1893229,15.390625 64.6242187,15.796875 C65.0591146,16.203125 65.2973958,16.7369792 65.3390625,17.3984375 L65.3390625,17.3984375 L66.2375,17.3984375 C66.1958333,16.4973958 65.8742187,15.7708333 65.2726562,15.21875 C64.6710937,14.6666667 63.9067708,14.390625 62.9796875,14.390625 C62.2505208,14.390625 61.6138021,14.5651042 61.0695312,14.9140625 C60.5252604,15.2630208 60.1072917,15.7578125 59.815625,16.3984375 C59.5239583,17.0390625 59.378125,17.7760417 59.378125,18.609375 L59.378125,18.609375 L59.378125,18.890625 C59.378125,20.1927083 59.7023437,21.2291667 60.3507812,22 C60.9992187,22.7708333 61.878125,23.15625 62.9875,23.15625 Z M73.38125,23.15625 C74.2614583,23.15625 75.0570312,23.0234375 75.7679687,22.7578125 C76.4789062,22.4921875 77.0010417,22.1223958 77.334375,21.6484375 L77.334375,21.6484375 L77.334375,17.6015625 L73.31875,17.6015625 L73.31875,18.4140625 L76.3734375,18.4140625 L76.3734375,21.3515625 C76.1859375,21.5807292 75.8994792,21.78125 75.5140625,21.953125 C74.9203125,22.2135417 74.209375,22.34375 73.38125,22.34375 C72.6677083,22.34375 72.0361979,22.1614583 71.4867187,21.796875 C70.9372396,21.4322917 70.5153646,20.9179688 70.2210937,20.2539062 C69.9268229,19.5898438 69.7796875,18.8255208 69.7796875,17.9609375 L69.7796875,17.9609375 L69.7796875,16.6171875 C69.7796875,15.2421875 70.0895833,14.1770833 70.709375,13.421875 C71.3291667,12.6666667 72.1703125,12.2890625 73.2328125,12.2890625 C74.1026042,12.2890625 74.8070312,12.5039062 75.3460937,12.9335938 C75.8851562,13.3632812 76.225,13.9947917 76.365625,14.828125 L76.365625,14.828125 L77.3265625,14.828125 C77.1911458,13.78125 76.7666667,12.9596354 76.053125,12.3632812 C75.3395833,11.7669271 74.396875,11.46875 73.225,11.46875 C71.88125,11.46875 70.8109375,11.9257812 70.0140625,12.8398438 C69.2171875,13.7539062 68.81875,15 68.81875,16.578125 L68.81875,16.578125 L68.81875,18.015625 C68.8239583,19.0260417 69.0166667,19.921875 69.396875,20.703125 C69.7770833,21.484375 70.3135417,22.0885417 71.00625,22.515625 C71.6989583,22.9427083 72.490625,23.15625 73.38125,23.15625 Z M81.6890625,23 L81.6890625,11 L80.7515625,11 L80.7515625,23 L81.6890625,23 Z M88.29375,23.15625 C89.028125,23.15625 89.6817708,22.9791667 90.2546875,22.625 C90.8276042,22.2708333 91.2716146,21.7669271 91.5867188,21.1132812 C91.9018229,20.4596354 92.059375,19.7239583 92.059375,18.90625 L92.059375,18.90625 L92.059375,18.7109375 C92.059375,17.4088542 91.7104167,16.3632812 91.0125,15.5742188 C90.3145833,14.7851562 89.403125,14.390625 88.278125,14.390625 C87.5489583,14.390625 86.8966146,14.5716146 86.3210938,14.9335938 C85.7455729,15.2955729 85.3002604,15.8020833 84.9851563,16.453125 C84.6700521,17.1041667 84.5125,17.8359375 84.5125,18.6484375 L84.5125,18.6484375 L84.5125,18.8359375 C84.5125,20.1380208 84.8627604,21.1835938 85.5632813,21.9726562 C86.2638021,22.7617188 87.1739583,23.15625 88.29375,23.15625 Z M88.29375,22.3671875 C87.4447917,22.3671875 86.7585938,22.0429688 86.2351563,21.3945312 C85.7117188,20.7460938 85.45,19.9166667 85.45,18.90625 L85.45,18.90625 L85.45,18.734375 C85.45,17.6770833 85.7130208,16.8216146 86.2390625,16.1679688 C86.7651042,15.5143229 87.4447917,15.1875 88.278125,15.1875 C88.8354167,15.1875 89.3302083,15.3346354 89.7625,15.6289062 C90.1947917,15.9231771 90.5307292,16.3385417 90.7703125,16.875 C91.0098958,17.4114583 91.1296875,18.0026042 91.1296875,18.6484375 L91.1296875,18.6484375 L91.1296875,18.828125 C91.1296875,19.890625 90.8679688,20.7460938 90.3445313,21.3945312 C89.8210938,22.0429688 89.1375,22.3671875 88.29375,22.3671875 Z M95.71875,23 L95.71875,17.2109375 C95.9322917,16.5963542 96.2617188,16.1080729 96.7070312,15.7460938 C97.1523438,15.3841146 97.6640625,15.203125 98.2421875,15.203125 C98.9348958,15.203125 99.4388021,15.3880208 99.7539062,15.7578125 C100.06901,16.1276042 100.229167,16.6901042 100.234375,17.4453125 L100.234375,17.4453125 L100.234375,23 L101.164062,23 L101.164062,17.453125 C101.158854,16.4322917 100.934896,15.6666667 100.492188,15.15625 C100.049479,14.6458333 99.375,14.390625 98.46875,14.390625 C97.8958333,14.390625 97.3723958,14.5273438 96.8984375,14.8007812 C96.4244792,15.0742188 96.0286458,15.4713542 95.7109375,15.9921875 L95.7109375,15.9921875 L95.6796875,14.546875 L94.7890625,14.546875 L94.7890625,23 L95.71875,23 Z M107.651562,23.15625 C108.958854,23.15625 109.95625,22.6588542 110.64375,21.6640625 L110.64375,21.6640625 L110.057812,21.21875 C109.745312,21.6197917 109.397656,21.9114583 109.014844,22.09375 C108.632031,22.2760417 108.190625,22.3671875 107.690625,22.3671875 C106.857292,22.3671875 106.165885,22.0481771 105.616406,21.4101562 C105.066927,20.7721354 104.792187,19.9739583 104.792187,19.015625 L104.792187,19.015625 L104.792187,18.8359375 L110.823437,18.8359375 L110.823437,18.3125 C110.823437,17.0989583 110.522656,16.1419271 109.921094,15.4414062 C109.319531,14.7408854 108.505729,14.390625 107.479687,14.390625 C106.823437,14.390625 106.214062,14.5768229 105.651562,14.9492188 C105.089062,15.3216146 104.65026,15.8333333 104.335156,16.484375 C104.020052,17.1354167 103.8625,17.8671875 103.8625,18.6796875 L103.8625,18.6796875 L103.8625,19.015625 C103.8625,19.8020833 104.023958,20.5117188 104.346875,21.1445312 C104.669792,21.7773438 105.121615,22.2708333 105.702344,22.625 C106.283073,22.9791667 106.932812,23.15625 107.651562,23.15625 Z M109.89375,18.0390625 L104.823437,18.0390625 C104.927604,17.1692708 105.220573,16.4765625 105.702344,15.9609375 C106.184115,15.4453125 106.776562,15.1875 107.479687,15.1875 C108.188021,15.1875 108.760937,15.4427083 109.198437,15.953125 C109.635937,16.4635417 109.867708,17.125 109.89375,17.9375 L109.89375,17.9375 L109.89375,18.0390625 Z" id="McGlone" fill="#000000" fill-rule="nonzero"></path>
        </g>
    </g>
</svg>